<svg width="111" height="145" viewBox="0 0 111 145" fill="none" xmlns="http://www.w3.org/2000/svg">
<path d="M93.604 0H7.75913C6.74019 -4.40779e-07 5.73121 0.20051 4.78983 0.590083C3.84845 0.979657 2.99309 1.55066 2.27259 2.2705C1.55209 2.99034 0.980564 3.84491 0.590632 4.78542C0.2007 5.72594 -4.41179e-07 6.73398 0 7.75198V137.248C-2.67304e-06 139.304 0.817475 141.276 2.27259 142.729C3.72771 144.183 5.70128 145 7.75913 145H93.604C95.6618 145 97.6354 144.183 99.0905 142.729C100.546 141.276 101.363 139.304 101.363 137.248C112.751 93.2399 113.101 50.0486 101.363 7.75198C101.363 5.69603 100.546 3.72428 99.0905 2.2705C97.6354 0.816723 95.6618 0 93.604 0ZM10.3667 127.058C10.3667 127.391 10.2343 127.711 9.99877 127.946C9.76319 128.181 9.44369 128.313 9.11054 128.313H5.86356C5.53042 128.313 5.21091 128.181 4.97534 127.946C4.73977 127.711 4.60742 127.391 4.60742 127.058V123.815C4.60742 123.482 4.73977 123.162 4.97534 122.927C5.21091 122.692 5.53042 122.56 5.86356 122.56H9.11054C9.44369 122.56 9.76319 122.692 9.99877 122.927C10.2343 123.162 10.3667 123.482 10.3667 123.815V127.058ZM10.3667 114.256C10.3667 114.589 10.2343 114.908 9.99877 115.143C9.76319 115.379 9.44369 115.511 9.11054 115.511H5.86356C5.53042 115.511 5.21091 115.379 4.97534 115.143C4.73977 114.908 4.60742 114.589 4.60742 114.256V111.012C4.60742 110.847 4.63993 110.684 4.70305 110.532C4.76618 110.379 4.8587 110.241 4.97534 110.125C5.09198 110.008 5.23046 109.916 5.38286 109.852C5.53526 109.789 5.69861 109.757 5.86356 109.757H9.11054C9.2755 109.757 9.43884 109.789 9.59125 109.852C9.74365 109.916 9.88212 110.008 9.99877 110.125C10.1154 110.241 10.2079 110.379 10.2711 110.532C10.3342 110.684 10.3667 110.847 10.3667 111.012V114.256ZM10.3667 101.453C10.3667 101.786 10.2343 102.105 9.99877 102.341C9.76319 102.576 9.44369 102.708 9.11054 102.708H5.86356C5.53042 102.708 5.21091 102.576 4.97534 102.341C4.73977 102.105 4.60742 101.786 4.60742 101.453V98.2094C4.60742 97.8765 4.73977 97.5573 4.97534 97.3219C5.21091 97.0866 5.53042 96.9544 5.86356 96.9544H9.11054C9.44369 96.9544 9.76319 97.0866 9.99877 97.3219C10.2343 97.5573 10.3667 97.8765 10.3667 98.2094V101.453ZM10.3667 88.6508C10.3667 88.9836 10.2343 89.3028 9.99877 89.5382C9.76319 89.7735 9.44369 89.9057 9.11054 89.9057H5.86356C5.53042 89.9057 5.21091 89.7735 4.97534 89.5382C4.73977 89.3028 4.60742 88.9836 4.60742 88.6508V85.4068C4.60742 85.0739 4.73977 84.7547 4.97534 84.5194C5.21091 84.284 5.53042 84.1518 5.86356 84.1518H9.11054C9.44369 84.1518 9.76319 84.284 9.99877 84.5194C10.2343 84.7547 10.3667 85.0739 10.3667 85.4068V88.6508ZM10.3667 75.8482C10.3667 76.181 10.2343 76.5002 9.99877 76.7356C9.76319 76.9709 9.44369 77.1032 9.11054 77.1032H5.86356C5.53042 77.1032 5.21091 76.9709 4.97534 76.7356C4.73977 76.5002 4.60742 76.181 4.60742 75.8482V72.6042C4.60742 72.2714 4.73977 71.9521 4.97534 71.7168C5.21091 71.4814 5.53042 71.3492 5.86356 71.3492H9.11054C9.44369 71.3492 9.76319 71.4814 9.99877 71.7168C10.2343 71.9521 10.3667 72.2714 10.3667 72.6042V75.8482ZM10.3667 63.0456C10.3667 63.3785 10.2343 63.6977 9.99877 63.933C9.76319 64.1684 9.44369 64.3006 9.11054 64.3006H5.86356C5.53042 64.3006 5.21091 64.1684 4.97534 63.933C4.73977 63.6977 4.60742 63.3785 4.60742 63.0456V59.8016C4.60742 59.4688 4.73977 59.1496 4.97534 58.9142C5.21091 58.6789 5.53042 58.5466 5.86356 58.5466H9.11054C9.44369 58.5466 9.76319 58.6789 9.99877 58.9142C10.2343 59.1496 10.3667 59.4688 10.3667 59.8016V63.0456ZM10.3667 50.243C10.3667 50.5759 10.2343 50.8951 9.99877 51.1304C9.76319 51.3658 9.44369 51.498 9.11054 51.498H5.86356C5.53042 51.498 5.21091 51.3658 4.97534 51.1304C4.73977 50.8951 4.60742 50.5759 4.60742 50.243V46.999C4.60742 46.6662 4.73977 46.347 4.97534 46.1116C5.21091 45.8763 5.53042 45.7441 5.86356 45.7441H9.11054C9.44369 45.7441 9.76319 45.8763 9.99877 46.1116C10.2343 46.347 10.3667 46.6662 10.3667 46.999V50.243ZM10.3667 37.4404C10.3667 37.7733 10.2343 38.0925 9.99877 38.3279C9.76319 38.5632 9.44369 38.6954 9.11054 38.6954H5.86356C5.53042 38.6954 5.21091 38.5632 4.97534 38.3279C4.73977 38.0925 4.60742 37.7733 4.60742 37.4404V34.1965C4.60742 33.8636 4.73977 33.5444 4.97534 33.3091C5.21091 33.0737 5.53042 32.9415 5.86356 32.9415H9.11054C9.44369 32.9415 9.76319 33.0737 9.99877 33.3091C10.2343 33.5444 10.3667 33.8636 10.3667 34.1965V37.4404ZM10.3667 24.6379C10.3667 24.9707 10.2343 25.2899 9.99877 25.5253C9.76319 25.7606 9.44369 25.8929 9.11054 25.8929H5.86356C5.53042 25.8929 5.21091 25.7606 4.97534 25.5253C4.73977 25.2899 4.60742 24.9707 4.60742 24.6379V21.3939C4.60742 21.061 4.73977 20.7418 4.97534 20.5065C5.21091 20.2711 5.53042 20.1389 5.86356 20.1389H9.11054C9.44369 20.1389 9.76319 20.2711 9.99877 20.5065C10.2343 20.7418 10.3667 21.061 10.3667 21.3939V24.6379Z" fill="#F2F2F2"/>
<path d="M9.63393 6.90475H5.34017C4.93548 6.90475 4.60741 7.23252 4.60741 7.63684V11.9266C4.60741 12.331 4.93548 12.6587 5.34017 12.6587H9.63393C10.0386 12.6587 10.3667 12.331 10.3667 11.9266V7.63684C10.3667 7.23252 10.0386 6.90475 9.63393 6.90475Z" fill="#0860FB"/>
<path d="M84.6612 23.3521H21.9668C21.8777 23.3521 21.7923 23.3167 21.7293 23.2537C21.6663 23.1907 21.6309 23.1052 21.6309 23.0161C21.6309 22.927 21.6663 22.8416 21.7293 22.7786C21.7923 22.7156 21.8777 22.6802 21.9668 22.6802H84.6612C84.7503 22.6802 84.8358 22.7156 84.8988 22.7786C84.9618 22.8416 84.9972 22.927 84.9972 23.0161C84.9972 23.1052 84.9618 23.1907 84.8988 23.2537C84.8358 23.3167 84.7503 23.3521 84.6612 23.3521Z" fill="#E6E6E6"/>
<path d="M84.6612 10.6933H66.8074C66.7183 10.6933 66.6329 10.6579 66.5699 10.5949C66.5069 10.5319 66.4715 10.4465 66.4715 10.3574C66.4715 10.2683 66.5069 10.1828 66.5699 10.1198C66.6329 10.0568 66.7183 10.0214 66.8074 10.0214H84.6612C84.7503 10.0214 84.8358 10.0568 84.8988 10.1198C84.9618 10.1828 84.9972 10.2683 84.9972 10.3574C84.9972 10.4465 84.9618 10.5319 84.8988 10.5949C84.8358 10.6579 84.7503 10.6933 84.6612 10.6933Z" fill="#E6E6E6"/>
<path d="M84.6612 36.0108H21.9668C21.8777 36.0108 21.7923 35.9754 21.7293 35.9124C21.6663 35.8494 21.6309 35.764 21.6309 35.6749C21.6309 35.5858 21.6663 35.5003 21.7293 35.4373C21.7923 35.3743 21.8777 35.3389 21.9668 35.3389H84.6612C84.7503 35.3389 84.8358 35.3743 84.8988 35.4373C84.9618 35.5003 84.9972 35.5858 84.9972 35.6749C84.9972 35.764 84.9618 35.8494 84.8988 35.9124C84.8358 35.9754 84.7503 36.0108 84.6612 36.0108Z" fill="#E6E6E6"/>
<path d="M84.6612 48.6696H21.9668C21.8777 48.6696 21.7923 48.6342 21.7293 48.5712C21.6663 48.5082 21.6309 48.4227 21.6309 48.3336C21.6309 48.2445 21.6663 48.1591 21.7293 48.0961C21.7923 48.0331 21.8777 47.9977 21.9668 47.9977H84.6612C84.7503 47.9977 84.8358 48.0331 84.8988 48.0961C84.9618 48.1591 84.9972 48.2445 84.9972 48.3336C84.9972 48.4227 84.9618 48.5082 84.8988 48.5712C84.8358 48.6342 84.7503 48.6696 84.6612 48.6696Z" fill="#E6E6E6"/>
<path d="M84.6612 61.3283H21.9668C21.8777 61.3283 21.7923 61.293 21.7293 61.23C21.6663 61.1669 21.6309 61.0815 21.6309 60.9924C21.6309 60.9033 21.6663 60.8178 21.7293 60.7548C21.7923 60.6918 21.8777 60.6564 21.9668 60.6564H84.6612C84.7503 60.6564 84.8358 60.6918 84.8988 60.7548C84.9618 60.8178 84.9972 60.9033 84.9972 60.9924C84.9972 61.0815 84.9618 61.1669 84.8988 61.23C84.8358 61.293 84.7503 61.3283 84.6612 61.3283Z" fill="#E6E6E6"/>
<path d="M84.6612 73.9871H21.9668C21.8777 73.9871 21.7923 73.9517 21.7293 73.8887C21.6663 73.8257 21.6309 73.7402 21.6309 73.6511C21.6309 73.562 21.6663 73.4766 21.7293 73.4136C21.7923 73.3506 21.8777 73.3152 21.9668 73.3152H84.6612C84.7503 73.3152 84.8358 73.3506 84.8988 73.4136C84.9618 73.4766 84.9972 73.562 84.9972 73.6511C84.9972 73.7402 84.9618 73.8257 84.8988 73.8887C84.8358 73.9517 84.7503 73.9871 84.6612 73.9871Z" fill="#E6E6E6"/>
<path d="M84.6612 86.6457H21.9668C21.8777 86.6457 21.7923 86.6103 21.7293 86.5473C21.6663 86.4843 21.6309 86.3988 21.6309 86.3097C21.6309 86.2206 21.6663 86.1352 21.7293 86.0722C21.7923 86.0092 21.8777 85.9738 21.9668 85.9738H84.6612C84.7503 85.9738 84.8358 86.0092 84.8988 86.0722C84.9618 86.1352 84.9972 86.2206 84.9972 86.3097C84.9972 86.3988 84.9618 86.4843 84.8988 86.5473C84.8358 86.6103 84.7503 86.6457 84.6612 86.6457Z" fill="#E6E6E6"/>
<path d="M84.6612 99.3046H21.9668C21.8777 99.3046 21.7923 99.2692 21.7293 99.2062C21.6663 99.1432 21.6309 99.0577 21.6309 98.9686C21.6309 98.8795 21.6663 98.7941 21.7293 98.7311C21.7923 98.6681 21.8777 98.6327 21.9668 98.6327H84.6612C84.7503 98.6327 84.8358 98.6681 84.8988 98.7311C84.9618 98.7941 84.9972 98.8795 84.9972 98.9686C84.9972 99.0577 84.9618 99.1432 84.8988 99.2062C84.8358 99.2692 84.7503 99.3046 84.6612 99.3046Z" fill="#E6E6E6"/>
<path d="M84.6612 111.963H21.9668C21.8777 111.963 21.7923 111.928 21.7293 111.865C21.6663 111.802 21.6309 111.716 21.6309 111.627C21.6309 111.538 21.6663 111.453 21.7293 111.39C21.7923 111.327 21.8777 111.291 21.9668 111.291H84.6612C84.7503 111.291 84.8358 111.327 84.8988 111.39C84.9618 111.453 84.9972 111.538 84.9972 111.627C84.9972 111.716 84.9618 111.802 84.8988 111.865C84.8358 111.928 84.7503 111.963 84.6612 111.963Z" fill="#E6E6E6"/>
<path d="M84.6612 124.622H21.9668C21.8777 124.622 21.7923 124.587 21.7293 124.524C21.6663 124.461 21.6309 124.375 21.6309 124.286C21.6309 124.197 21.6663 124.112 21.7293 124.049C21.7923 123.986 21.8777 123.95 21.9668 123.95H84.6612C84.7503 123.95 84.8358 123.986 84.8988 124.049C84.9618 124.112 84.9972 124.197 84.9972 124.286C84.9972 124.375 84.9618 124.461 84.8988 124.524C84.8358 124.587 84.7503 124.622 84.6612 124.622Z" fill="#E6E6E6"/>
<path d="M75.3667 20.3963H32.1286C31.9603 20.3966 31.7935 20.3637 31.6379 20.2995C31.4823 20.2353 31.3408 20.1411 31.2217 20.0223C31.1026 19.9034 31.008 19.7623 30.9435 19.6069C30.8791 19.4516 30.8459 19.285 30.8459 19.1168C30.8459 18.9486 30.8791 18.782 30.9435 18.6267C31.008 18.4713 31.1026 18.3302 31.2217 18.2113C31.3408 18.0925 31.4823 17.9983 31.6379 17.9341C31.7935 17.8699 31.9603 17.837 32.1286 17.8373H75.3667C75.706 17.8378 76.0312 17.9729 76.2709 18.2128C76.5107 18.4527 76.6453 18.7778 76.6453 19.1168C76.6453 19.4558 76.5107 19.7809 76.2709 20.0208C76.0312 20.2607 75.706 20.3958 75.3667 20.3963Z" fill="#CCCCCC"/>
<path d="M75.3667 33.0551H32.1286C31.789 33.0551 31.4632 32.9203 31.223 32.6803C30.9828 32.4403 30.8479 32.1149 30.8479 31.7755C30.8479 31.4362 30.9828 31.1107 31.223 30.8708C31.4632 30.6308 31.789 30.496 32.1286 30.496H75.3667C75.7063 30.496 76.0321 30.6308 76.2723 30.8708C76.5125 31.1107 76.6474 31.4362 76.6474 31.7755C76.6474 32.1149 76.5125 32.4403 76.2723 32.6803C76.0321 32.9203 75.7063 33.0551 75.3667 33.0551Z" fill="#CCCCCC"/>
<path d="M75.3667 45.7138H32.1286C31.9603 45.714 31.7935 45.6811 31.6379 45.617C31.4823 45.5528 31.3408 45.4586 31.2217 45.3397C31.1026 45.2209 31.008 45.0798 30.9435 44.9244C30.8791 44.769 30.8459 44.6025 30.8459 44.4343C30.8459 44.2661 30.8791 44.0995 30.9435 43.9441C31.008 43.7888 31.1026 43.6476 31.2217 43.5288C31.3408 43.4099 31.4823 43.3157 31.6379 43.2516C31.7935 43.1874 31.9603 43.1545 32.1286 43.1548H75.3667C75.706 43.1553 76.0312 43.2903 76.2709 43.5302C76.5107 43.7701 76.6453 44.0953 76.6453 44.4343C76.6453 44.7732 76.5107 45.0984 76.2709 45.3383C76.0312 45.5782 75.706 45.7132 75.3667 45.7138Z" fill="#CCCCCC"/>
<path d="M75.3667 58.3725H32.1286C31.789 58.3725 31.4632 58.2377 31.223 57.9977C30.9828 57.7578 30.8479 57.4323 30.8479 57.093C30.8479 56.7536 30.9828 56.4282 31.223 56.1882C31.4632 55.9483 31.789 55.8135 32.1286 55.8135H75.3667C75.7063 55.8135 76.0321 55.9483 76.2723 56.1882C76.5125 56.4282 76.6474 56.7536 76.6474 57.093C76.6474 57.4323 76.5125 57.7578 76.2723 57.9977C76.0321 58.2377 75.7063 58.3725 75.3667 58.3725Z" fill="#CCCCCC"/>
<path d="M75.3667 71.0313H32.1286C31.9603 71.0315 31.7935 70.9986 31.6379 70.9345C31.4823 70.8703 31.3408 70.7761 31.2217 70.6572C31.1026 70.5384 31.008 70.3972 30.9435 70.2419C30.8791 70.0865 30.8459 69.9199 30.8459 69.7517C30.8459 69.5835 30.8791 69.417 30.9435 69.2616C31.008 69.1062 31.1026 68.9651 31.2217 68.8463C31.3408 68.7274 31.4823 68.6332 31.6379 68.569C31.7935 68.5048 31.9603 68.472 32.1286 68.4722H75.3667C75.706 68.4728 76.0312 68.6078 76.2709 68.8477C76.5107 69.0876 76.6453 69.4127 76.6453 69.7517C76.6453 70.0907 76.5107 70.4159 76.2709 70.6558C76.0312 70.8957 75.706 71.0307 75.3667 71.0313Z" fill="#CCCCCC"/>
<path d="M75.3667 83.69H32.1286C31.9603 83.6902 31.7935 83.6573 31.6379 83.5932C31.4823 83.529 31.3408 83.4348 31.2217 83.3159C31.1026 83.1971 31.008 83.056 30.9435 82.9006C30.8791 82.7452 30.8459 82.5787 30.8459 82.4105C30.8459 82.2423 30.8791 82.0757 30.9435 81.9203C31.008 81.765 31.1026 81.6238 31.2217 81.505C31.3408 81.3861 31.4823 81.2919 31.6379 81.2278C31.7935 81.1636 31.9603 81.1307 32.1286 81.131H75.3667C75.706 81.1315 76.0312 81.2666 76.2709 81.5064C76.5107 81.7463 76.6453 82.0715 76.6453 82.4105C76.6453 82.7494 76.5107 83.0746 76.2709 83.3145C76.0312 83.5544 75.706 83.6894 75.3667 83.69Z" fill="#CCCCCC"/>
<path d="M75.3667 96.3487H32.1286C31.789 96.3487 31.4632 96.2139 31.223 95.9739C30.9828 95.734 30.8479 95.4085 30.8479 95.0692C30.8479 94.7298 30.9828 94.4044 31.223 94.1644C31.4632 93.9245 31.789 93.7897 32.1286 93.7897H75.3667C75.7063 93.7897 76.0321 93.9245 76.2723 94.1644C76.5125 94.4044 76.6474 94.7298 76.6474 95.0692C76.6474 95.4085 76.5125 95.734 76.2723 95.9739C76.0321 96.2139 75.7063 96.3487 75.3667 96.3487Z" fill="#CCCCCC"/>
<path d="M75.3667 109.007H32.1286C31.9603 109.008 31.7935 108.975 31.6379 108.911C31.4823 108.846 31.3408 108.752 31.2217 108.633C31.1026 108.515 31.008 108.373 30.9435 108.218C30.8791 108.063 30.8459 107.896 30.8459 107.728C30.8459 107.56 30.8791 107.393 30.9435 107.238C31.008 107.082 31.1026 106.941 31.2217 106.822C31.3408 106.704 31.4823 106.609 31.6379 106.545C31.7935 106.481 31.9603 106.448 32.1286 106.448H75.3667C75.706 106.449 76.0312 106.584 76.2709 106.824C76.5107 107.064 76.6453 107.389 76.6453 107.728C76.6453 108.067 76.5107 108.392 76.2709 108.632C76.0312 108.872 75.706 109.007 75.3667 109.007Z" fill="#CCCCCC"/>
<path d="M75.3667 121.666H32.1286C31.9604 121.666 31.7939 121.633 31.6385 121.569C31.4831 121.504 31.3419 121.41 31.223 121.291C31.1041 121.173 31.0098 121.032 30.9454 120.876C30.881 120.721 30.8479 120.555 30.8479 120.387C30.8479 120.219 30.881 120.052 30.9454 119.897C31.0098 119.742 31.1041 119.601 31.223 119.482C31.3419 119.363 31.4831 119.269 31.6385 119.205C31.7939 119.14 31.9604 119.107 32.1286 119.107H75.3667C75.7063 119.107 76.0321 119.242 76.2723 119.482C76.5125 119.722 76.6474 120.047 76.6474 120.387C76.6474 120.726 76.5125 121.051 76.2723 121.291C76.0321 121.531 75.7063 121.666 75.3667 121.666Z" fill="#CCCCCC"/>
<path d="M102.327 7.75199C102.327 5.69604 101.51 3.7243 100.055 2.27052C98.5997 0.816737 96.6261 8.01173e-06 94.5682 0H7.72702C11.2381 0 53.4278 2.47871 80.3061 5.60745C84.7873 6.12852 88.9913 8.04348 92.3238 11.0816C95.6563 14.1198 97.9488 18.1275 98.8773 22.5383C106.78 60.1011 105.336 98.3555 95.2723 137.248C95.2723 139.304 94.4548 141.276 92.9997 142.729C91.5446 144.183 89.571 145 87.5132 145H94.5683C96.6261 145 98.5997 144.183 100.055 142.729C101.51 141.276 102.327 139.304 102.327 137.248C113.715 93.2399 114.065 50.0486 102.327 7.75199Z" fill="#E6E6E6"/>
<path d="M99.0524 141.175L98.4018 141.007C109.89 96.6123 109.894 53.115 98.414 11.7224C97.219 9.5581 95.4999 7.72767 93.4139 6.39861C91.3279 5.06954 88.9416 4.28428 86.4734 4.11465L52.0496 1.67742L52.0972 1.00777L86.521 3.44499C89.1077 3.62289 91.6082 4.44765 93.7926 5.84345C95.9769 7.23925 97.775 9.16129 99.0214 11.4329L99.051 11.5051C104.855 32.4098 107.777 54.0079 107.735 75.7018C107.692 97.0482 104.771 119.077 99.0524 141.175Z" fill="white"/>
</svg>
